<svg xmlns="http://www.w3.org/2000/svg" viewBox="0 0 620 120" role="img" aria-labelledby="title"><title id="title">Federation Watchtower</title><rect width="620" height="120" rx="18" fill="#171718"/><circle cx="61" cy="60" r="48" fill="#b84d32" stroke="#f5e6bd" stroke-width="4"/><path d="M43 32h40v13H56v12h23v13H56v22H43z" fill="#f5e6bd"/><path d="M59 92 64 69l5 23zM56 69h16M59 60h9M61 52h5" fill="none" stroke="#171718" stroke-width="3"/><path d="m26 70 9-5-2 8 8-3-12 12 2-8-7 2zM96 70l-9-5 2 8-8-3 12 12-2-8 7 2z" fill="#f4c842"/><text x="130" y="57" fill="#f5e6bd" font-family="Arial Narrow,Arial,sans-serif" font-size="37" font-weight="900" letter-spacing="2">FEDERATION</text><text x="133" y="91" fill="#f4c842" font-family="ui-monospace,monospace" font-size="18" letter-spacing="4">WATCHTOWER</text></svg>
