<svg xmlns="http://www.w3.org/2000/svg" viewBox="0 0 160 160" role="img" aria-labelledby="title desc"><title id="title">Federation Watchtower F-signal</title><desc id="desc">A circular broadcast badge with a dominant F, antenna tower, and lightning signal marks.</desc><circle cx="80" cy="80" r="75" fill="#171718"/><circle cx="80" cy="80" r="66" fill="#b84d32" stroke="#f5e6bd" stroke-width="5"/><path d="M48 38h67v20H72v16h37v19H72v29H48z" fill="#f5e6bd"/><path d="M75 122 83 80l8 42zM70 80h26M74 67h12M77 57h6" fill="none" stroke="#171718" stroke-width="4" stroke-linecap="round" stroke-linejoin="round"/><path d="m31 90 12-6-3 11 12-4-17 17 3-11-10 3zM129 90l-12-6 3 11-12-4 17 17-3-11 10 3z" fill="#f4c842" stroke="#171718" stroke-width="2" stroke-linejoin="round"/><path d="M80 45v-9M80 31v-7" stroke="#f4c842" stroke-width="3" stroke-linecap="round"/><circle cx="80" cy="20" r="4" fill="#f4c842"/></svg>
